<?xml version="1.0" encoding="utf-8" standalone="no"?>
<!DOCTYPE svg PUBLIC "-//W3C//DTD SVG 1.1//EN"
  "http://www.w3.org/Graphics/SVG/1.1/DTD/svg11.dtd">
<!-- Created with matplotlib (https://matplotlib.org/) -->
<svg height="288pt" version="1.1" viewBox="0 0 432 288" width="432pt" xmlns="http://www.w3.org/2000/svg" xmlns:xlink="http://www.w3.org/1999/xlink">
 <defs>
  <style type="text/css">
*{stroke-linecap:butt;stroke-linejoin:round;}
  </style>
 </defs>
 <g id="figure_1">
  <g id="patch_1">
   <path d="M 0 288 
L 432 288 
L 432 0 
L 0 0 
z
" style="fill:#ffffff;"/>
  </g>
  <g id="axes_1">
   <g id="patch_2">
    <path d="M 54 252 
L 388.8 252 
L 388.8 34.56 
L 54 34.56 
z
" style="fill:#ffffff;"/>
   </g>
   <g id="matplotlib.axis_1">
    <g id="xtick_1">
     <g id="line2d_1">
      <defs>
       <path d="M 0 0 
L 0 3.5 
" id="md355bd7a10" style="stroke:#000000;stroke-width:0.8;"/>
      </defs>
      <g>
       <use style="stroke:#000000;stroke-width:0.8;" x="64.770064" xlink:href="#md355bd7a10" y="257"/>
      </g>
     </g>
     <g id="text_1">
      <!-- 5.0 -->
      <defs>
       <path d="M 10.796875 72.90625 
L 49.515625 72.90625 
L 49.515625 64.59375 
L 19.828125 64.59375 
L 19.828125 46.734375 
Q 21.96875 47.46875 24.109375 47.828125 
Q 26.265625 48.1875 28.421875 48.1875 
Q 40.625 48.1875 47.75 41.5 
Q 54.890625 34.8125 54.890625 23.390625 
Q 54.890625 11.625 47.5625 5.09375 
Q 40.234375 -1.421875 26.90625 -1.421875 
Q 22.3125 -1.421875 17.546875 -0.640625 
Q 12.796875 0.140625 7.71875 1.703125 
L 7.71875 11.625 
Q 12.109375 9.234375 16.796875 8.0625 
Q 21.484375 6.890625 26.703125 6.890625 
Q 35.15625 6.890625 40.078125 11.328125 
Q 45.015625 15.765625 45.015625 23.390625 
Q 45.015625 31 40.078125 35.4375 
Q 35.15625 39.890625 26.703125 39.890625 
Q 22.75 39.890625 18.8125 39.015625 
Q 14.890625 38.140625 10.796875 36.28125 
z
" id="DejaVuSans-53"/>
       <path d="M 10.6875 12.40625 
L 21 12.40625 
L 21 0 
L 10.6875 0 
z
" id="DejaVuSans-46"/>
       <path d="M 31.78125 66.40625 
Q 24.171875 66.40625 20.328125 58.90625 
Q 16.5 51.421875 16.5 36.375 
Q 16.5 21.390625 20.328125 13.890625 
Q 24.171875 6.390625 31.78125 6.390625 
Q 39.453125 6.390625 43.28125 13.890625 
Q 47.125 21.390625 47.125 36.375 
Q 47.125 51.421875 43.28125 58.90625 
Q 39.453125 66.40625 31.78125 66.40625 
z
M 31.78125 74.21875 
Q 44.046875 74.21875 50.515625 64.515625 
Q 56.984375 54.828125 56.984375 36.375 
Q 56.984375 17.96875 50.515625 8.265625 
Q 44.046875 -1.421875 31.78125 -1.421875 
Q 19.53125 -1.421875 13.0625 8.265625 
Q 6.59375 17.96875 6.59375 36.375 
Q 6.59375 54.828125 13.0625 64.515625 
Q 19.53125 74.21875 31.78125 74.21875 
z
" id="DejaVuSans-48"/>
      </defs>
      <g transform="translate(56.818501 271.598437)scale(0.1 -0.1)">
       <use xlink:href="#DejaVuSans-53"/>
       <use x="63.623047" xlink:href="#DejaVuSans-46"/>
       <use x="95.410156" xlink:href="#DejaVuSans-48"/>
      </g>
     </g>
    </g>
    <g id="xtick_2">
     <g id="line2d_2">
      <g>
       <use style="stroke:#000000;stroke-width:0.8;" x="107.679043" xlink:href="#md355bd7a10" y="257"/>
      </g>
     </g>
     <g id="text_2">
      <!-- 5.5 -->
      <g transform="translate(99.72748 271.598437)scale(0.1 -0.1)">
       <use xlink:href="#DejaVuSans-53"/>
       <use x="63.623047" xlink:href="#DejaVuSans-46"/>
       <use x="95.410156" xlink:href="#DejaVuSans-53"/>
      </g>
     </g>
    </g>
    <g id="xtick_3">
     <g id="line2d_3">
      <g>
       <use style="stroke:#000000;stroke-width:0.8;" x="150.588022" xlink:href="#md355bd7a10" y="257"/>
      </g>
     </g>
     <g id="text_3">
      <!-- 6.0 -->
      <defs>
       <path d="M 33.015625 40.375 
Q 26.375 40.375 22.484375 35.828125 
Q 18.609375 31.296875 18.609375 23.390625 
Q 18.609375 15.53125 22.484375 10.953125 
Q 26.375 6.390625 33.015625 6.390625 
Q 39.65625 6.390625 43.53125 10.953125 
Q 47.40625 15.53125 47.40625 23.390625 
Q 47.40625 31.296875 43.53125 35.828125 
Q 39.65625 40.375 33.015625 40.375 
z
M 52.59375 71.296875 
L 52.59375 62.3125 
Q 48.875 64.0625 45.09375 64.984375 
Q 41.3125 65.921875 37.59375 65.921875 
Q 27.828125 65.921875 22.671875 59.328125 
Q 17.53125 52.734375 16.796875 39.40625 
Q 19.671875 43.65625 24.015625 45.921875 
Q 28.375 48.1875 33.59375 48.1875 
Q 44.578125 48.1875 50.953125 41.515625 
Q 57.328125 34.859375 57.328125 23.390625 
Q 57.328125 12.15625 50.6875 5.359375 
Q 44.046875 -1.421875 33.015625 -1.421875 
Q 20.359375 -1.421875 13.671875 8.265625 
Q 6.984375 17.96875 6.984375 36.375 
Q 6.984375 53.65625 15.1875 63.9375 
Q 23.390625 74.21875 37.203125 74.21875 
Q 40.921875 74.21875 44.703125 73.484375 
Q 48.484375 72.75 52.59375 71.296875 
z
" id="DejaVuSans-54"/>
      </defs>
      <g transform="translate(142.636459 271.598437)scale(0.1 -0.1)">
       <use xlink:href="#DejaVuSans-54"/>
       <use x="63.623047" xlink:href="#DejaVuSans-46"/>
       <use x="95.410156" xlink:href="#DejaVuSans-48"/>
      </g>
     </g>
    </g>
    <g id="xtick_4">
     <g id="line2d_4">
      <g>
       <use style="stroke:#000000;stroke-width:0.8;" x="193.497001" xlink:href="#md355bd7a10" y="257"/>
      </g>
     </g>
     <g id="text_4">
      <!-- 6.5 -->
      <g transform="translate(185.545439 271.598437)scale(0.1 -0.1)">
       <use xlink:href="#DejaVuSans-54"/>
       <use x="63.623047" xlink:href="#DejaVuSans-46"/>
       <use x="95.410156" xlink:href="#DejaVuSans-53"/>
      </g>
     </g>
    </g>
    <g id="xtick_5">
     <g id="line2d_5">
      <g>
       <use style="stroke:#000000;stroke-width:0.8;" x="236.40598" xlink:href="#md355bd7a10" y="257"/>
      </g>
     </g>
     <g id="text_5">
      <!-- 7.0 -->
      <defs>
       <path d="M 8.203125 72.90625 
L 55.078125 72.90625 
L 55.078125 68.703125 
L 28.609375 0 
L 18.3125 0 
L 43.21875 64.59375 
L 8.203125 64.59375 
z
" id="DejaVuSans-55"/>
      </defs>
      <g transform="translate(228.454418 271.598437)scale(0.1 -0.1)">
       <use xlink:href="#DejaVuSans-55"/>
       <use x="63.623047" xlink:href="#DejaVuSans-46"/>
       <use x="95.410156" xlink:href="#DejaVuSans-48"/>
      </g>
     </g>
    </g>
    <g id="xtick_6">
     <g id="line2d_6">
      <g>
       <use style="stroke:#000000;stroke-width:0.8;" x="279.314959" xlink:href="#md355bd7a10" y="257"/>
      </g>
     </g>
     <g id="text_6">
      <!-- 7.5 -->
      <g transform="translate(271.363397 271.598437)scale(0.1 -0.1)">
       <use xlink:href="#DejaVuSans-55"/>
       <use x="63.623047" xlink:href="#DejaVuSans-46"/>
       <use x="95.410156" xlink:href="#DejaVuSans-53"/>
      </g>
     </g>
    </g>
    <g id="xtick_7">
     <g id="line2d_7">
      <g>
       <use style="stroke:#000000;stroke-width:0.8;" x="322.223939" xlink:href="#md355bd7a10" y="257"/>
      </g>
     </g>
     <g id="text_7">
      <!-- 8.0 -->
      <defs>
       <path d="M 31.78125 34.625 
Q 24.75 34.625 20.71875 30.859375 
Q 16.703125 27.09375 16.703125 20.515625 
Q 16.703125 13.921875 20.71875 10.15625 
Q 24.75 6.390625 31.78125 6.390625 
Q 38.8125 6.390625 42.859375 10.171875 
Q 46.921875 13.96875 46.921875 20.515625 
Q 46.921875 27.09375 42.890625 30.859375 
Q 38.875 34.625 31.78125 34.625 
z
M 21.921875 38.8125 
Q 15.578125 40.375 12.03125 44.71875 
Q 8.5 49.078125 8.5 55.328125 
Q 8.5 64.0625 14.71875 69.140625 
Q 20.953125 74.21875 31.78125 74.21875 
Q 42.671875 74.21875 48.875 69.140625 
Q 55.078125 64.0625 55.078125 55.328125 
Q 55.078125 49.078125 51.53125 44.71875 
Q 48 40.375 41.703125 38.8125 
Q 48.828125 37.15625 52.796875 32.3125 
Q 56.78125 27.484375 56.78125 20.515625 
Q 56.78125 9.90625 50.3125 4.234375 
Q 43.84375 -1.421875 31.78125 -1.421875 
Q 19.734375 -1.421875 13.25 4.234375 
Q 6.78125 9.90625 6.78125 20.515625 
Q 6.78125 27.484375 10.78125 32.3125 
Q 14.796875 37.15625 21.921875 38.8125 
z
M 18.3125 54.390625 
Q 18.3125 48.734375 21.84375 45.5625 
Q 25.390625 42.390625 31.78125 42.390625 
Q 38.140625 42.390625 41.71875 45.5625 
Q 45.3125 48.734375 45.3125 54.390625 
Q 45.3125 60.0625 41.71875 63.234375 
Q 38.140625 66.40625 31.78125 66.40625 
Q 25.390625 66.40625 21.84375 63.234375 
Q 18.3125 60.0625 18.3125 54.390625 
z
" id="DejaVuSans-56"/>
      </defs>
      <g transform="translate(314.272376 271.598437)scale(0.1 -0.1)">
       <use xlink:href="#DejaVuSans-56"/>
       <use x="63.623047" xlink:href="#DejaVuSans-46"/>
       <use x="95.410156" xlink:href="#DejaVuSans-48"/>
      </g>
     </g>
    </g>
    <g id="xtick_8">
     <g id="line2d_8">
      <g>
       <use style="stroke:#000000;stroke-width:0.8;" x="365.132918" xlink:href="#md355bd7a10" y="257"/>
      </g>
     </g>
     <g id="text_8">
      <!-- 8.5 -->
      <g transform="translate(357.181355 271.598437)scale(0.1 -0.1)">
       <use xlink:href="#DejaVuSans-56"/>
       <use x="63.623047" xlink:href="#DejaVuSans-46"/>
       <use x="95.410156" xlink:href="#DejaVuSans-53"/>
      </g>
     </g>
    </g>
    <g id="text_9">
     <!-- $pIC_{50}$ -->
     <defs>
      <path d="M 49.609375 33.6875 
Q 49.609375 40.875 46.484375 44.671875 
Q 43.359375 48.484375 37.5 48.484375 
Q 33.5 48.484375 29.859375 46.4375 
Q 26.21875 44.390625 23.390625 40.484375 
Q 20.609375 36.625 18.9375 31.15625 
Q 17.28125 25.6875 17.28125 20.3125 
Q 17.28125 13.484375 20.40625 9.796875 
Q 23.53125 6.109375 29.296875 6.109375 
Q 33.546875 6.109375 37.1875 8.109375 
Q 40.828125 10.109375 43.40625 13.921875 
Q 46.1875 17.921875 47.890625 23.34375 
Q 49.609375 28.765625 49.609375 33.6875 
z
M 21.78125 46.390625 
Q 25.390625 51.125 30.296875 53.5625 
Q 35.203125 56 41.21875 56 
Q 49.609375 56 54.25 50.5 
Q 58.890625 45.015625 58.890625 35.109375 
Q 58.890625 27 56 19.65625 
Q 53.125 12.3125 47.703125 6.5 
Q 44.09375 2.640625 39.546875 0.609375 
Q 35.015625 -1.421875 29.984375 -1.421875 
Q 24.171875 -1.421875 20.21875 1 
Q 16.265625 3.421875 14.3125 8.203125 
L 8.6875 -20.796875 
L -0.296875 -20.796875 
L 14.40625 54.6875 
L 23.390625 54.6875 
z
" id="DejaVuSans-Oblique-112"/>
      <path d="M 16.890625 72.90625 
L 26.8125 72.90625 
L 12.59375 0 
L 2.6875 0 
z
" id="DejaVuSans-Oblique-73"/>
      <path d="M 69.484375 67.28125 
L 67.484375 56.890625 
Q 62.796875 61.625 57.546875 63.921875 
Q 52.296875 66.21875 46.1875 66.21875 
Q 37.84375 66.21875 31.515625 62.203125 
Q 25.203125 58.203125 20.609375 50 
Q 17.671875 44.734375 16.125 38.84375 
Q 14.59375 32.953125 14.59375 27 
Q 14.59375 17.046875 19.75 11.8125 
Q 24.90625 6.59375 34.71875 6.59375 
Q 41.5 6.59375 47.75 8.765625 
Q 54 10.9375 59.90625 15.28125 
L 57.625 3.609375 
Q 51.8125 1.125 45.875 -0.140625 
Q 39.9375 -1.421875 33.984375 -1.421875 
Q 19.96875 -1.421875 12.078125 6.1875 
Q 4.203125 13.8125 4.203125 27.390625 
Q 4.203125 36.078125 7.203125 44.46875 
Q 10.203125 52.875 15.828125 59.8125 
Q 21.78125 67.1875 29.421875 70.703125 
Q 37.0625 74.21875 47.21875 74.21875 
Q 53.46875 74.21875 59.0625 72.484375 
Q 64.65625 70.75 69.484375 67.28125 
z
" id="DejaVuSans-Oblique-67"/>
     </defs>
     <g transform="translate(208.65 285.25625)scale(0.1 -0.1)">
      <use transform="translate(0 0.78125)" xlink:href="#DejaVuSans-Oblique-112"/>
      <use transform="translate(63.476562 0.78125)" xlink:href="#DejaVuSans-Oblique-73"/>
      <use transform="translate(92.96875 0.78125)" xlink:href="#DejaVuSans-Oblique-67"/>
      <use transform="translate(162.792969 -15.625)scale(0.7)" xlink:href="#DejaVuSans-53"/>
      <use transform="translate(207.329102 -15.625)scale(0.7)" xlink:href="#DejaVuSans-48"/>
     </g>
    </g>
   </g>
   <g id="line2d_9">
    <path clip-path="url(#p21f008fdbb)" d="M 76.825029 251.99917 
L 79.667232 251.995808 
L 82.509435 251.983982 
L 85.351638 251.95245 
L 88.193841 251.886172 
L 91.036044 251.770318 
L 93.878247 251.593541 
L 96.72045 251.35171 
L 99.562653 251.046659 
L 102.404856 250.672359 
L 105.247059 250.219424 
L 108.089262 249.719023 
L 110.931465 249.24717 
L 113.773668 248.838344 
L 116.615871 248.428716 
L 119.458074 247.912724 
L 122.300277 247.202674 
L 125.14248 246.233358 
L 127.984683 244.98329 
L 130.826886 243.490098 
L 133.669089 241.820615 
L 136.511292 240.05168 
L 139.353495 238.276615 
L 142.195698 236.61995 
L 145.037901 235.164367 
L 147.880104 233.728332 
L 150.722307 231.809607 
L 153.56451 228.929544 
L 156.406713 225.035104 
L 159.248916 220.590586 
L 162.091119 216.291788 
L 164.933322 212.50521 
L 167.775525 208.929462 
L 170.617728 204.922263 
L 173.459931 200.136984 
L 176.302134 194.819276 
L 179.144337 189.579955 
L 181.98654 184.947019 
L 184.828743 181.107063 
L 187.670946 178.031074 
L 190.513149 175.809176 
L 193.355352 174.671717 
L 196.197555 174.574974 
L 199.039758 175.122175 
L 201.881961 176.254685 
L 204.724164 178.687034 
L 207.566367 183.193201 
L 210.40857 189.714962 
L 213.250773 197.426731 
L 216.092976 205.284152 
L 218.935179 212.36623 
L 221.777383 218.199521 
L 224.619586 223.003004 
L 227.461789 227.353816 
L 230.303992 231.542836 
L 233.146195 235.40499 
L 235.988398 238.677021 
L 238.830601 241.313823 
L 241.672804 243.464006 
L 244.515007 245.265492 
L 247.35721 246.748349 
L 250.199413 247.90514 
L 253.041616 248.766869 
L 255.883819 249.4104 
L 258.726022 249.918262 
L 261.568225 250.310024 
L 264.410428 250.542402 
L 267.252631 250.611755 
L 270.094834 250.602044 
L 272.937037 250.595632 
L 275.77924 250.591058 
L 278.621443 250.545535 
L 281.463646 250.463923 
L 284.305849 250.412136 
L 287.148052 250.457908 
L 289.990255 250.622284 
L 292.832458 250.873583 
L 295.674661 251.148147 
L 298.516864 251.383066 
L 301.359067 251.538077 
L 304.20127 251.602284 
L 307.043473 251.599521 
L 309.885676 251.580343 
L 312.727879 251.59154 
L 315.570082 251.649062 
L 318.412285 251.73612 
L 321.254488 251.819144 
L 324.096691 251.867011 
L 326.938894 251.869532 
L 329.781097 251.84543 
L 332.6233 251.8217 
L 335.465503 251.805221 
L 338.307706 251.792101 
L 341.149909 251.794702 
L 343.992112 251.830242 
L 346.834315 251.890244 
L 349.676518 251.946309 
L 352.518721 251.980425 
L 355.360924 251.994723 
L 358.203127 251.998953 
" style="fill:none;stroke:#0000ff;stroke-linecap:square;stroke-width:1.5;"/>
   </g>
   <g id="line2d_10">
    <path clip-path="url(#p21f008fdbb)" d="M 69.218182 251.999428 
L 72.123278 251.997704 
L 75.028375 251.9924 
L 77.933471 251.978757 
L 80.838568 251.948175 
L 83.743665 251.885009 
L 86.648761 251.75916 
L 89.553858 251.516384 
L 92.458954 251.079498 
L 95.364051 250.378676 
L 98.269147 249.404742 
L 101.174244 248.235223 
L 104.07934 246.98666 
L 106.984437 245.732735 
L 109.889533 244.484588 
L 112.79463 243.23951 
L 115.699726 241.990473 
L 118.604823 240.663711 
L 121.50992 239.11447 
L 124.415016 237.261461 
L 127.320113 235.210477 
L 130.225209 233.172466 
L 133.130306 231.231174 
L 136.035402 229.221072 
L 138.940499 226.861052 
L 141.845595 224.011347 
L 144.750692 220.801028 
L 147.655788 217.515254 
L 150.560885 214.369938 
L 153.465981 211.381817 
L 156.371078 208.418391 
L 159.276175 205.373951 
L 162.181271 202.342526 
L 165.086368 199.619941 
L 167.991464 197.489167 
L 170.896561 195.9977 
L 173.801657 194.964064 
L 176.706754 194.182875 
L 179.61185 193.618836 
L 182.516947 193.442697 
L 185.422043 193.888593 
L 188.32714 195.039347 
L 191.232237 196.739702 
L 194.137333 198.737859 
L 197.04243 200.90134 
L 199.947526 203.270891 
L 202.852623 205.938612 
L 205.757719 208.934246 
L 208.662816 212.209828 
L 211.567912 215.657343 
L 214.473009 219.127819 
L 217.378105 222.481494 
L 220.283202 225.633016 
L 223.188298 228.533502 
L 226.093395 231.137167 
L 228.998492 233.425696 
L 231.903588 235.446058 
L 234.808685 237.284487 
L 237.713781 239.00608 
L 240.618878 240.628871 
L 243.523974 242.132532 
L 246.429071 243.474406 
L 249.334167 244.612888 
L 252.239264 245.535333 
L 255.14436 246.271449 
L 258.049457 246.885859 
L 260.954553 247.453957 
L 263.85965 248.023121 
L 266.764747 248.580029 
L 269.669843 249.060739 
L 272.57494 249.406245 
L 275.480036 249.617787 
L 278.385133 249.763965 
L 281.290229 249.930398 
L 284.195326 250.150045 
L 287.100422 250.377994 
L 290.005519 250.538963 
L 292.910615 250.598039 
L 295.815712 250.582489 
L 298.720809 250.546895 
L 301.625905 250.533312 
L 304.531002 250.560996 
L 307.436098 250.63294 
L 310.341195 250.739876 
L 313.246291 250.866671 
L 316.151388 251.006801 
L 319.056484 251.167127 
L 321.961581 251.350152 
L 324.866677 251.536316 
L 327.771774 251.692472 
L 330.67687 251.796468 
L 333.581967 251.850957 
L 336.487064 251.877364 
L 339.39216 251.898783 
L 342.297257 251.925646 
L 345.202353 251.954432 
L 348.10745 251.97733 
L 351.012546 251.990945 
L 353.917643 251.997108 
L 356.822739 251.999263 
" style="fill:none;stroke:#800080;stroke-linecap:square;stroke-width:1.5;"/>
   </g>
   <g id="line2d_11">
    <path clip-path="url(#p21f008fdbb)" d="M 70.128409 251.999339 
L 73.167305 251.997175 
L 76.2062 251.99031 
L 79.245095 251.973102 
L 82.28399 251.938861 
L 85.322886 251.88387 
L 88.361781 251.808469 
L 91.400676 251.707384 
L 94.439571 251.553996 
L 97.478467 251.301469 
L 100.517362 250.915019 
L 103.556257 250.410227 
L 106.595153 249.852885 
L 109.634048 249.310256 
L 112.672943 248.792762 
L 115.711838 248.232383 
L 118.750734 247.507788 
L 121.789629 246.49258 
L 124.828524 245.104982 
L 127.867419 243.35048 
L 130.906315 241.3316 
L 133.94521 239.179903 
L 136.984105 236.92772 
L 140.023 234.450342 
L 143.061896 231.581594 
L 146.100791 228.293924 
L 149.139686 224.730744 
L 152.178581 221.073005 
L 155.217477 217.420836 
L 158.256372 213.785431 
L 161.295267 210.136524 
L 164.334162 206.462055 
L 167.373058 202.810501 
L 170.411953 199.288239 
L 173.450848 196.060506 
L 176.489743 193.348591 
L 179.528639 191.302169 
L 182.567534 189.816761 
L 185.606429 188.594442 
L 188.645324 187.497117 
L 191.68422 186.798702 
L 194.723115 186.992603 
L 197.76201 188.371164 
L 200.800905 190.901954 
L 203.839801 194.48035 
L 206.878696 199.079619 
L 209.917591 204.540011 
L 212.956486 210.36569 
L 215.995382 215.908318 
L 219.034277 220.749415 
L 222.073172 224.840898 
L 225.112067 228.319252 
L 228.150963 231.30019 
L 231.189858 233.86744 
L 234.228753 236.125077 
L 237.267648 238.147304 
L 240.306544 239.914788 
L 243.345439 241.379788 
L 246.384334 242.578194 
L 249.423229 243.622341 
L 252.462125 244.59382 
L 255.50102 245.486566 
L 258.539915 246.253839 
L 261.57881 246.875576 
L 264.617706 247.362111 
L 267.656601 247.709677 
L 270.695496 247.886898 
L 273.734391 247.883356 
L 276.773287 247.762224 
L 279.812182 247.650666 
L 282.851077 247.667882 
L 285.889972 247.848455 
L 288.928868 248.129995 
L 291.967763 248.418589 
L 295.006658 248.661416 
L 298.045554 248.855323 
L 301.084449 249.010991 
L 304.123344 249.13964 
L 307.162239 249.268013 
L 310.201135 249.432802 
L 313.24003 249.65273 
L 316.278925 249.921734 
L 319.31782 250.222529 
L 322.356716 250.530923 
L 325.395611 250.818743 
L 328.434506 251.069188 
L 331.473401 251.28315 
L 334.512297 251.464208 
L 337.551192 251.607315 
L 340.590087 251.707115 
L 343.628982 251.768699 
L 346.667878 251.806345 
L 349.706773 251.836265 
L 352.745668 251.869936 
L 355.784563 251.909111 
L 358.823459 251.946671 
L 361.862354 251.974474 
L 364.901249 251.990197 
L 367.940144 251.997008 
L 370.97904 251.999278 
" style="fill:none;stroke:#ff0000;stroke-linecap:square;stroke-width:1.5;"/>
   </g>
   <g id="line2d_12">
    <path clip-path="url(#p21f008fdbb)" d="M 69.357754 251.999334 
L 72.430725 251.996947 
L 75.503695 251.98866 
L 78.576665 251.965198 
L 81.649636 251.909561 
L 84.722606 251.795143 
L 87.795577 251.583181 
L 90.868547 251.220297 
L 93.941517 250.648249 
L 97.014488 249.841088 
L 100.087458 248.848785 
L 103.160428 247.783362 
L 106.233399 246.726721 
L 109.306369 245.647824 
L 112.379339 244.426693 
L 115.45231 242.956587 
L 118.52528 241.209771 
L 121.59825 239.2186 
L 124.671221 237.037113 
L 127.744191 234.750236 
L 130.817161 232.480774 
L 133.890132 230.298763 
L 136.963102 228.094163 
L 140.036072 225.612171 
L 143.109043 222.681002 
L 146.182013 219.377019 
L 149.254983 215.933467 
L 152.327954 212.539002 
L 155.400924 209.262552 
L 158.473894 206.123542 
L 161.546865 203.201337 
L 164.619835 200.685452 
L 167.692805 198.771015 
L 170.765776 197.461059 
L 173.838746 196.529764 
L 176.911716 195.721335 
L 179.984687 194.958768 
L 183.057657 194.396727 
L 186.130627 194.330785 
L 189.203598 195.002018 
L 192.276568 196.432207 
L 195.349538 198.488567 
L 198.422509 201.083781 
L 201.495479 204.192308 
L 204.568449 207.688847 
L 207.64142 211.31986 
L 210.71439 214.861306 
L 213.78736 218.215069 
L 216.860331 221.358602 
L 219.933301 224.297333 
L 223.006271 227.061686 
L 226.079242 229.670116 
L 229.152212 232.10464 
L 232.225183 234.358697 
L 235.298153 236.467268 
L 238.371123 238.469449 
L 241.444094 240.372055 
L 244.517064 242.136961 
L 247.590034 243.677642 
L 250.663005 244.904721 
L 253.735975 245.816951 
L 256.808945 246.528437 
L 259.881916 247.178933 
L 262.954886 247.827403 
L 266.027856 248.439624 
L 269.100827 248.955699 
L 272.173797 249.350972 
L 275.246767 249.647898 
L 278.319738 249.896837 
L 281.392708 250.14415 
L 284.465678 250.396214 
L 287.538649 250.609819 
L 290.611619 250.732095 
L 293.684589 250.754851 
L 296.75756 250.724597 
L 299.83053 250.70199 
L 302.9035 250.720213 
L 305.976471 250.781945 
L 309.049441 250.882366 
L 312.122411 251.021292 
L 315.195382 251.195011 
L 318.268352 251.386653 
L 321.341322 251.567365 
L 324.414293 251.709189 
L 327.487263 251.801613 
L 330.560233 251.852744 
L 333.633204 251.873893 
L 336.706174 251.871577 
L 339.779144 251.854424 
L 342.852115 251.837396 
L 345.925085 251.834522 
L 348.998055 251.84983 
L 352.071026 251.877278 
L 355.143996 251.908542 
L 358.216966 251.938471 
L 361.289937 251.963961 
L 364.362907 251.982402 
L 367.435878 251.993076 
L 370.508848 251.997851 
L 373.581818 251.99948 
" style="fill:none;stroke:#ffa500;stroke-linecap:square;stroke-width:1.5;"/>
   </g>
   <g id="line2d_13">
    <path clip-path="url(#p21f008fdbb)" d="M 85.925504 251.997346 
L 88.056123 251.975235 
L 90.186742 251.891762 
L 92.317361 251.778436 
L 94.44798 251.787465 
L 96.578598 251.902764 
L 98.709217 251.966108 
L 100.839836 251.949153 
L 102.970455 251.912084 
L 105.101074 251.875937 
L 107.231692 251.726039 
L 109.362311 251.367666 
L 111.49293 250.971565 
L 113.623549 250.932295 
L 115.754168 251.206277 
L 117.884786 251.396352 
L 120.015405 251.462226 
L 122.146024 251.507483 
L 124.276643 251.543222 
L 126.407262 251.464156 
L 128.53788 251.261975 
L 130.668499 250.964229 
L 132.799118 250.468721 
L 134.929737 250.00432 
L 137.060356 249.845428 
L 139.190975 249.55051 
L 141.321593 248.904849 
L 143.452212 248.639796 
L 145.582831 248.89617 
L 147.71345 248.66592 
L 149.844069 247.479394 
L 151.974687 245.765636 
L 154.105306 244.014256 
L 156.235925 242.891632 
L 158.366544 242.571906 
L 160.497163 241.393841 
L 162.627781 239.031862 
L 164.7584 236.444894 
L 166.889019 233.542866 
L 169.019638 231.519457 
L 171.150257 229.872911 
L 173.280875 224.656005 
L 175.411494 213.94193 
L 177.542113 202.505577 
L 179.672732 193.676263 
L 181.803351 184.940621 
L 183.933969 168.007854 
L 186.064588 139.030103 
L 188.195207 120.534815 
L 190.325826 126.952437 
L 192.456445 141.454151 
L 194.587063 148.080608 
L 196.717682 132.925517 
L 198.848301 88.989877 
L 200.97892 44.914261 
L 203.109539 51.366755 
L 205.240157 108.693279 
L 207.370776 162.710425 
L 209.501395 185.56057 
L 211.632014 192.090634 
L 213.762633 201.723107 
L 215.893251 217.145532 
L 218.02387 230.261833 
L 220.154489 238.520899 
L 222.285108 243.200732 
L 224.415727 245.702433 
L 226.546345 247.007682 
L 228.676964 247.731642 
L 230.807583 248.049129 
L 232.938202 247.777372 
L 235.068821 247.757443 
L 237.199439 249.12138 
L 239.330058 250.710023 
L 241.460677 251.341348 
L 243.591296 251.39245 
L 245.721915 251.430105 
L 247.852533 251.585912 
L 249.983152 251.721461 
L 252.113771 251.792002 
L 254.24439 251.794667 
L 256.375009 251.743546 
L 258.505628 251.751301 
L 260.636246 251.845801 
L 262.766865 251.932128 
L 264.897484 251.935533 
L 267.028103 251.876666 
L 269.158722 251.854162 
L 271.28934 251.908945 
L 273.419959 251.965684 
L 275.550578 251.967382 
L 277.681197 251.932139 
L 279.811816 251.923614 
L 281.942434 251.956174 
L 284.073053 251.959979 
L 286.203672 251.878975 
L 288.334291 251.773643 
L 290.46491 251.797578 
L 292.595528 251.914131 
L 294.726147 251.982714 
L 296.856766 251.998348 
" style="fill:none;stroke:#008000;stroke-linecap:square;stroke-width:1.5;"/>
   </g>
   <g id="line2d_14">
    <path clip-path="url(#p21f008fdbb)" d="M 70.815597 251.997252 
L 73.526759 251.989351 
L 76.237921 251.967544 
L 78.949083 251.921967 
L 81.660245 251.850648 
L 84.371407 251.766204 
L 87.082569 251.678475 
L 89.793731 251.555149 
L 92.504893 251.308792 
L 95.216055 250.849873 
L 97.927217 250.157346 
L 100.638379 249.269521 
L 103.349541 248.197185 
L 106.060703 246.897017 
L 108.771865 245.384665 
L 111.483027 243.837445 
L 114.194189 242.488726 
L 116.905351 241.395494 
L 119.616513 240.360798 
L 122.327675 239.092182 
L 125.038837 237.415902 
L 127.749999 235.382918 
L 130.461161 233.210995 
L 133.172323 231.083631 
L 135.883485 228.962726 
L 138.594647 226.629012 
L 141.30581 223.9668 
L 144.016972 221.206935 
L 146.728134 218.789009 
L 149.439296 216.903916 
L 152.150458 215.234501 
L 154.86162 213.226572 
L 157.572782 210.569565 
L 160.283944 207.386644 
L 162.995106 204.060778 
L 165.706268 200.934764 
L 168.41743 198.110611 
L 171.128592 195.497679 
L 173.839754 193.081952 
L 176.550916 191.123504 
L 179.262078 190.022215 
L 181.97324 189.996442 
L 184.684402 190.938009 
L 187.395564 192.53006 
L 190.106726 194.421558 
L 192.817888 196.334691 
L 195.52905 198.129755 
L 198.240212 199.833553 
L 200.951374 201.632874 
L 203.662536 203.826175 
L 206.373698 206.676563 
L 209.08486 210.223397 
L 211.796022 214.229544 
L 214.507184 218.298905 
L 217.218346 222.064604 
L 219.929508 225.371475 
L 222.64067 228.321663 
L 225.351832 231.082494 
L 228.062994 233.663615 
L 230.774156 235.951849 
L 233.485318 237.909352 
L 236.19648 239.623831 
L 238.907642 241.169834 
L 241.618804 242.516091 
L 244.329966 243.611148 
L 247.041128 244.497747 
L 249.75229 245.267728 
L 252.463452 245.939366 
L 255.174614 246.481633 
L 257.885776 246.955264 
L 260.596938 247.510513 
L 263.3081 248.199726 
L 266.019262 248.878283 
L 268.730424 249.354311 
L 271.441586 249.594581 
L 274.152749 249.736765 
L 276.863911 249.930408 
L 279.575073 250.210241 
L 282.286235 250.500398 
L 284.997397 250.685592 
L 287.708559 250.679391 
L 290.419721 250.483517 
L 293.130883 250.216826 
L 295.842045 250.054384 
L 298.553207 250.093149 
L 301.264369 250.283352 
L 303.975531 250.50988 
L 306.686693 250.70811 
L 309.397855 250.871288 
L 312.109017 250.992845 
L 314.820179 251.062835 
L 317.531341 251.109274 
L 320.242503 251.193724 
L 322.953665 251.352051 
L 325.664827 251.557659 
L 328.375989 251.749405 
L 331.087151 251.883725 
L 333.798313 251.956202 
L 336.509475 251.986701 
L 339.220637 251.996763 
" style="fill:none;stroke:#808080;stroke-linecap:square;stroke-width:1.5;"/>
   </g>
   <g id="patch_3">
    <path d="M 54 257 
L 388.8 257 
" style="fill:none;stroke:#000000;stroke-linecap:square;stroke-linejoin:miter;stroke-width:0.8;"/>
   </g>
   <g id="legend_1">
    <g id="patch_4">
     <path d="M 263.834375 130.62875 
L 381.8 130.62875 
Q 383.8 130.62875 383.8 128.62875 
L 383.8 41.56 
Q 383.8 39.56 381.8 39.56 
L 263.834375 39.56 
Q 261.834375 39.56 261.834375 41.56 
L 261.834375 128.62875 
Q 261.834375 130.62875 263.834375 130.62875 
z
" style="fill:#ffffff;opacity:0.8;stroke:#cccccc;stroke-linejoin:miter;"/>
    </g>
    <g id="line2d_15">
     <path d="M 265.834375 47.658437 
L 285.834375 47.658437 
" style="fill:none;stroke:#0000ff;stroke-linecap:square;stroke-width:1.5;"/>
    </g>
    <g id="line2d_16"/>
    <g id="text_10">
     <!-- PPO-GRL -->
     <defs>
      <path d="M 19.671875 64.796875 
L 19.671875 37.40625 
L 32.078125 37.40625 
Q 38.96875 37.40625 42.71875 40.96875 
Q 46.484375 44.53125 46.484375 51.125 
Q 46.484375 57.671875 42.71875 61.234375 
Q 38.96875 64.796875 32.078125 64.796875 
z
M 9.8125 72.90625 
L 32.078125 72.90625 
Q 44.34375 72.90625 50.609375 67.359375 
Q 56.890625 61.8125 56.890625 51.125 
Q 56.890625 40.328125 50.609375 34.8125 
Q 44.34375 29.296875 32.078125 29.296875 
L 19.671875 29.296875 
L 19.671875 0 
L 9.8125 0 
z
" id="DejaVuSans-80"/>
      <path d="M 39.40625 66.21875 
Q 28.65625 66.21875 22.328125 58.203125 
Q 16.015625 50.203125 16.015625 36.375 
Q 16.015625 22.609375 22.328125 14.59375 
Q 28.65625 6.59375 39.40625 6.59375 
Q 50.140625 6.59375 56.421875 14.59375 
Q 62.703125 22.609375 62.703125 36.375 
Q 62.703125 50.203125 56.421875 58.203125 
Q 50.140625 66.21875 39.40625 66.21875 
z
M 39.40625 74.21875 
Q 54.734375 74.21875 63.90625 63.9375 
Q 73.09375 53.65625 73.09375 36.375 
Q 73.09375 19.140625 63.90625 8.859375 
Q 54.734375 -1.421875 39.40625 -1.421875 
Q 24.03125 -1.421875 14.8125 8.828125 
Q 5.609375 19.09375 5.609375 36.375 
Q 5.609375 53.65625 14.8125 63.9375 
Q 24.03125 74.21875 39.40625 74.21875 
z
" id="DejaVuSans-79"/>
      <path d="M 4.890625 31.390625 
L 31.203125 31.390625 
L 31.203125 23.390625 
L 4.890625 23.390625 
z
" id="DejaVuSans-45"/>
      <path d="M 59.515625 10.40625 
L 59.515625 29.984375 
L 43.40625 29.984375 
L 43.40625 38.09375 
L 69.28125 38.09375 
L 69.28125 6.78125 
Q 63.578125 2.734375 56.6875 0.65625 
Q 49.8125 -1.421875 42 -1.421875 
Q 24.90625 -1.421875 15.25 8.5625 
Q 5.609375 18.5625 5.609375 36.375 
Q 5.609375 54.25 15.25 64.234375 
Q 24.90625 74.21875 42 74.21875 
Q 49.125 74.21875 55.546875 72.453125 
Q 61.96875 70.703125 67.390625 67.28125 
L 67.390625 56.78125 
Q 61.921875 61.421875 55.765625 63.765625 
Q 49.609375 66.109375 42.828125 66.109375 
Q 29.4375 66.109375 22.71875 58.640625 
Q 16.015625 51.171875 16.015625 36.375 
Q 16.015625 21.625 22.71875 14.15625 
Q 29.4375 6.6875 42.828125 6.6875 
Q 48.046875 6.6875 52.140625 7.59375 
Q 56.25 8.5 59.515625 10.40625 
z
" id="DejaVuSans-71"/>
      <path d="M 44.390625 34.1875 
Q 47.5625 33.109375 50.5625 29.59375 
Q 53.5625 26.078125 56.59375 19.921875 
L 66.609375 0 
L 56 0 
L 46.6875 18.703125 
Q 43.0625 26.03125 39.671875 28.421875 
Q 36.28125 30.8125 30.421875 30.8125 
L 19.671875 30.8125 
L 19.671875 0 
L 9.8125 0 
L 9.8125 72.90625 
L 32.078125 72.90625 
Q 44.578125 72.90625 50.734375 67.671875 
Q 56.890625 62.453125 56.890625 51.90625 
Q 56.890625 45.015625 53.6875 40.46875 
Q 50.484375 35.9375 44.390625 34.1875 
z
M 19.671875 64.796875 
L 19.671875 38.921875 
L 32.078125 38.921875 
Q 39.203125 38.921875 42.84375 42.21875 
Q 46.484375 45.515625 46.484375 51.90625 
Q 46.484375 58.296875 42.84375 61.546875 
Q 39.203125 64.796875 32.078125 64.796875 
z
" id="DejaVuSans-82"/>
      <path d="M 9.8125 72.90625 
L 19.671875 72.90625 
L 19.671875 8.296875 
L 55.171875 8.296875 
L 55.171875 0 
L 9.8125 0 
z
" id="DejaVuSans-76"/>
     </defs>
     <g transform="translate(293.834375 51.158437)scale(0.1 -0.1)">
      <use xlink:href="#DejaVuSans-80"/>
      <use x="60.302734" xlink:href="#DejaVuSans-80"/>
      <use x="120.605469" xlink:href="#DejaVuSans-79"/>
      <use x="199.347656" xlink:href="#DejaVuSans-45"/>
      <use x="235.478516" xlink:href="#DejaVuSans-71"/>
      <use x="312.96875" xlink:href="#DejaVuSans-82"/>
      <use x="382.451172" xlink:href="#DejaVuSans-76"/>
     </g>
    </g>
    <g id="line2d_17">
     <path d="M 265.834375 62.336562 
L 285.834375 62.336562 
" style="fill:none;stroke:#800080;stroke-linecap:square;stroke-width:1.5;"/>
    </g>
    <g id="line2d_18"/>
    <g id="text_11">
     <!-- PPO-Eval -->
     <defs>
      <path d="M 9.8125 72.90625 
L 55.90625 72.90625 
L 55.90625 64.59375 
L 19.671875 64.59375 
L 19.671875 43.015625 
L 54.390625 43.015625 
L 54.390625 34.71875 
L 19.671875 34.71875 
L 19.671875 8.296875 
L 56.78125 8.296875 
L 56.78125 0 
L 9.8125 0 
z
" id="DejaVuSans-69"/>
      <path d="M 2.984375 54.6875 
L 12.5 54.6875 
L 29.59375 8.796875 
L 46.6875 54.6875 
L 56.203125 54.6875 
L 35.6875 0 
L 23.484375 0 
z
" id="DejaVuSans-118"/>
      <path d="M 34.28125 27.484375 
Q 23.390625 27.484375 19.1875 25 
Q 14.984375 22.515625 14.984375 16.5 
Q 14.984375 11.71875 18.140625 8.90625 
Q 21.296875 6.109375 26.703125 6.109375 
Q 34.1875 6.109375 38.703125 11.40625 
Q 43.21875 16.703125 43.21875 25.484375 
L 43.21875 27.484375 
z
M 52.203125 31.203125 
L 52.203125 0 
L 43.21875 0 
L 43.21875 8.296875 
Q 40.140625 3.328125 35.546875 0.953125 
Q 30.953125 -1.421875 24.3125 -1.421875 
Q 15.921875 -1.421875 10.953125 3.296875 
Q 6 8.015625 6 15.921875 
Q 6 25.140625 12.171875 29.828125 
Q 18.359375 34.515625 30.609375 34.515625 
L 43.21875 34.515625 
L 43.21875 35.40625 
Q 43.21875 41.609375 39.140625 45 
Q 35.0625 48.390625 27.6875 48.390625 
Q 23 48.390625 18.546875 47.265625 
Q 14.109375 46.140625 10.015625 43.890625 
L 10.015625 52.203125 
Q 14.9375 54.109375 19.578125 55.046875 
Q 24.21875 56 28.609375 56 
Q 40.484375 56 46.34375 49.84375 
Q 52.203125 43.703125 52.203125 31.203125 
z
" id="DejaVuSans-97"/>
      <path d="M 9.421875 75.984375 
L 18.40625 75.984375 
L 18.40625 0 
L 9.421875 0 
z
" id="DejaVuSans-108"/>
     </defs>
     <g transform="translate(293.834375 65.836562)scale(0.1 -0.1)">
      <use xlink:href="#DejaVuSans-80"/>
      <use x="60.302734" xlink:href="#DejaVuSans-80"/>
      <use x="120.605469" xlink:href="#DejaVuSans-79"/>
      <use x="199.347656" xlink:href="#DejaVuSans-45"/>
      <use x="235.431641" xlink:href="#DejaVuSans-69"/>
      <use x="298.615234" xlink:href="#DejaVuSans-118"/>
      <use x="357.794922" xlink:href="#DejaVuSans-97"/>
      <use x="419.074219" xlink:href="#DejaVuSans-108"/>
     </g>
    </g>
    <g id="line2d_19">
     <path d="M 265.834375 77.014687 
L 285.834375 77.014687 
" style="fill:none;stroke:#ff0000;stroke-linecap:square;stroke-width:1.5;"/>
    </g>
    <g id="line2d_20"/>
    <g id="text_12">
     <!-- REINFORCE -->
     <defs>
      <path d="M 9.8125 72.90625 
L 19.671875 72.90625 
L 19.671875 0 
L 9.8125 0 
z
" id="DejaVuSans-73"/>
      <path d="M 9.8125 72.90625 
L 23.09375 72.90625 
L 55.421875 11.921875 
L 55.421875 72.90625 
L 64.984375 72.90625 
L 64.984375 0 
L 51.703125 0 
L 19.390625 60.984375 
L 19.390625 0 
L 9.8125 0 
z
" id="DejaVuSans-78"/>
      <path d="M 9.8125 72.90625 
L 51.703125 72.90625 
L 51.703125 64.59375 
L 19.671875 64.59375 
L 19.671875 43.109375 
L 48.578125 43.109375 
L 48.578125 34.8125 
L 19.671875 34.8125 
L 19.671875 0 
L 9.8125 0 
z
" id="DejaVuSans-70"/>
      <path d="M 64.40625 67.28125 
L 64.40625 56.890625 
Q 59.421875 61.53125 53.78125 63.8125 
Q 48.140625 66.109375 41.796875 66.109375 
Q 29.296875 66.109375 22.65625 58.46875 
Q 16.015625 50.828125 16.015625 36.375 
Q 16.015625 21.96875 22.65625 14.328125 
Q 29.296875 6.6875 41.796875 6.6875 
Q 48.140625 6.6875 53.78125 8.984375 
Q 59.421875 11.28125 64.40625 15.921875 
L 64.40625 5.609375 
Q 59.234375 2.09375 53.4375 0.328125 
Q 47.65625 -1.421875 41.21875 -1.421875 
Q 24.65625 -1.421875 15.125 8.703125 
Q 5.609375 18.84375 5.609375 36.375 
Q 5.609375 53.953125 15.125 64.078125 
Q 24.65625 74.21875 41.21875 74.21875 
Q 47.75 74.21875 53.53125 72.484375 
Q 59.328125 70.75 64.40625 67.28125 
z
" id="DejaVuSans-67"/>
     </defs>
     <g transform="translate(293.834375 80.514687)scale(0.1 -0.1)">
      <use xlink:href="#DejaVuSans-82"/>
      <use x="69.482422" xlink:href="#DejaVuSans-69"/>
      <use x="132.666016" xlink:href="#DejaVuSans-73"/>
      <use x="162.158203" xlink:href="#DejaVuSans-78"/>
      <use x="236.962891" xlink:href="#DejaVuSans-70"/>
      <use x="294.482422" xlink:href="#DejaVuSans-79"/>
      <use x="373.193359" xlink:href="#DejaVuSans-82"/>
      <use x="442.597656" xlink:href="#DejaVuSans-67"/>
      <use x="512.421875" xlink:href="#DejaVuSans-69"/>
     </g>
    </g>
    <g id="line2d_21">
     <path d="M 265.834375 91.692813 
L 285.834375 91.692813 
" style="fill:none;stroke:#ffa500;stroke-linecap:square;stroke-width:1.5;"/>
    </g>
    <g id="line2d_22"/>
    <g id="text_13">
     <!-- REINFORCE-GRL -->
     <g transform="translate(293.834375 95.192813)scale(0.1 -0.1)">
      <use xlink:href="#DejaVuSans-82"/>
      <use x="69.482422" xlink:href="#DejaVuSans-69"/>
      <use x="132.666016" xlink:href="#DejaVuSans-73"/>
      <use x="162.158203" xlink:href="#DejaVuSans-78"/>
      <use x="236.962891" xlink:href="#DejaVuSans-70"/>
      <use x="294.482422" xlink:href="#DejaVuSans-79"/>
      <use x="373.193359" xlink:href="#DejaVuSans-82"/>
      <use x="442.597656" xlink:href="#DejaVuSans-67"/>
      <use x="512.421875" xlink:href="#DejaVuSans-69"/>
      <use x="575.605469" xlink:href="#DejaVuSans-45"/>
      <use x="611.736328" xlink:href="#DejaVuSans-71"/>
      <use x="689.226562" xlink:href="#DejaVuSans-82"/>
      <use x="758.708984" xlink:href="#DejaVuSans-76"/>
     </g>
    </g>
    <g id="line2d_23">
     <path d="M 265.834375 106.370937 
L 285.834375 106.370937 
" style="fill:none;stroke:#008000;stroke-linecap:square;stroke-width:1.5;"/>
    </g>
    <g id="line2d_24"/>
    <g id="text_14">
     <!-- Demo SMILES -->
     <defs>
      <path d="M 19.671875 64.796875 
L 19.671875 8.109375 
L 31.59375 8.109375 
Q 46.6875 8.109375 53.6875 14.9375 
Q 60.6875 21.78125 60.6875 36.53125 
Q 60.6875 51.171875 53.6875 57.984375 
Q 46.6875 64.796875 31.59375 64.796875 
z
M 9.8125 72.90625 
L 30.078125 72.90625 
Q 51.265625 72.90625 61.171875 64.09375 
Q 71.09375 55.28125 71.09375 36.53125 
Q 71.09375 17.671875 61.125 8.828125 
Q 51.171875 0 30.078125 0 
L 9.8125 0 
z
" id="DejaVuSans-68"/>
      <path d="M 56.203125 29.59375 
L 56.203125 25.203125 
L 14.890625 25.203125 
Q 15.484375 15.921875 20.484375 11.0625 
Q 25.484375 6.203125 34.421875 6.203125 
Q 39.59375 6.203125 44.453125 7.46875 
Q 49.3125 8.734375 54.109375 11.28125 
L 54.109375 2.78125 
Q 49.265625 0.734375 44.1875 -0.34375 
Q 39.109375 -1.421875 33.890625 -1.421875 
Q 20.796875 -1.421875 13.15625 6.1875 
Q 5.515625 13.8125 5.515625 26.8125 
Q 5.515625 40.234375 12.765625 48.109375 
Q 20.015625 56 32.328125 56 
Q 43.359375 56 49.78125 48.890625 
Q 56.203125 41.796875 56.203125 29.59375 
z
M 47.21875 32.234375 
Q 47.125 39.59375 43.09375 43.984375 
Q 39.0625 48.390625 32.421875 48.390625 
Q 24.90625 48.390625 20.390625 44.140625 
Q 15.875 39.890625 15.1875 32.171875 
z
" id="DejaVuSans-101"/>
      <path d="M 52 44.1875 
Q 55.375 50.25 60.0625 53.125 
Q 64.75 56 71.09375 56 
Q 79.640625 56 84.28125 50.015625 
Q 88.921875 44.046875 88.921875 33.015625 
L 88.921875 0 
L 79.890625 0 
L 79.890625 32.71875 
Q 79.890625 40.578125 77.09375 44.375 
Q 74.3125 48.1875 68.609375 48.1875 
Q 61.625 48.1875 57.5625 43.546875 
Q 53.515625 38.921875 53.515625 30.90625 
L 53.515625 0 
L 44.484375 0 
L 44.484375 32.71875 
Q 44.484375 40.625 41.703125 44.40625 
Q 38.921875 48.1875 33.109375 48.1875 
Q 26.21875 48.1875 22.15625 43.53125 
Q 18.109375 38.875 18.109375 30.90625 
L 18.109375 0 
L 9.078125 0 
L 9.078125 54.6875 
L 18.109375 54.6875 
L 18.109375 46.1875 
Q 21.1875 51.21875 25.484375 53.609375 
Q 29.78125 56 35.6875 56 
Q 41.65625 56 45.828125 52.96875 
Q 50 49.953125 52 44.1875 
z
" id="DejaVuSans-109"/>
      <path d="M 30.609375 48.390625 
Q 23.390625 48.390625 19.1875 42.75 
Q 14.984375 37.109375 14.984375 27.296875 
Q 14.984375 17.484375 19.15625 11.84375 
Q 23.34375 6.203125 30.609375 6.203125 
Q 37.796875 6.203125 41.984375 11.859375 
Q 46.1875 17.53125 46.1875 27.296875 
Q 46.1875 37.015625 41.984375 42.703125 
Q 37.796875 48.390625 30.609375 48.390625 
z
M 30.609375 56 
Q 42.328125 56 49.015625 48.375 
Q 55.71875 40.765625 55.71875 27.296875 
Q 55.71875 13.875 49.015625 6.21875 
Q 42.328125 -1.421875 30.609375 -1.421875 
Q 18.84375 -1.421875 12.171875 6.21875 
Q 5.515625 13.875 5.515625 27.296875 
Q 5.515625 40.765625 12.171875 48.375 
Q 18.84375 56 30.609375 56 
z
" id="DejaVuSans-111"/>
      <path id="DejaVuSans-32"/>
      <path d="M 53.515625 70.515625 
L 53.515625 60.890625 
Q 47.90625 63.578125 42.921875 64.890625 
Q 37.9375 66.21875 33.296875 66.21875 
Q 25.25 66.21875 20.875 63.09375 
Q 16.5 59.96875 16.5 54.203125 
Q 16.5 49.359375 19.40625 46.890625 
Q 22.3125 44.4375 30.421875 42.921875 
L 36.375 41.703125 
Q 47.40625 39.59375 52.65625 34.296875 
Q 57.90625 29 57.90625 20.125 
Q 57.90625 9.515625 50.796875 4.046875 
Q 43.703125 -1.421875 29.984375 -1.421875 
Q 24.8125 -1.421875 18.96875 -0.25 
Q 13.140625 0.921875 6.890625 3.21875 
L 6.890625 13.375 
Q 12.890625 10.015625 18.65625 8.296875 
Q 24.421875 6.59375 29.984375 6.59375 
Q 38.421875 6.59375 43.015625 9.90625 
Q 47.609375 13.234375 47.609375 19.390625 
Q 47.609375 24.75 44.3125 27.78125 
Q 41.015625 30.8125 33.5 32.328125 
L 27.484375 33.5 
Q 16.453125 35.6875 11.515625 40.375 
Q 6.59375 45.0625 6.59375 53.421875 
Q 6.59375 63.09375 13.40625 68.65625 
Q 20.21875 74.21875 32.171875 74.21875 
Q 37.3125 74.21875 42.625 73.28125 
Q 47.953125 72.359375 53.515625 70.515625 
z
" id="DejaVuSans-83"/>
      <path d="M 9.8125 72.90625 
L 24.515625 72.90625 
L 43.109375 23.296875 
L 61.8125 72.90625 
L 76.515625 72.90625 
L 76.515625 0 
L 66.890625 0 
L 66.890625 64.015625 
L 48.09375 14.015625 
L 38.1875 14.015625 
L 19.390625 64.015625 
L 19.390625 0 
L 9.8125 0 
z
" id="DejaVuSans-77"/>
     </defs>
     <g transform="translate(293.834375 109.870937)scale(0.1 -0.1)">
      <use xlink:href="#DejaVuSans-68"/>
      <use x="77.001953" xlink:href="#DejaVuSans-101"/>
      <use x="138.525391" xlink:href="#DejaVuSans-109"/>
      <use x="235.9375" xlink:href="#DejaVuSans-111"/>
      <use x="297.119141" xlink:href="#DejaVuSans-32"/>
      <use x="328.90625" xlink:href="#DejaVuSans-83"/>
      <use x="392.382812" xlink:href="#DejaVuSans-77"/>
      <use x="478.662109" xlink:href="#DejaVuSans-73"/>
      <use x="508.154297" xlink:href="#DejaVuSans-76"/>
      <use x="563.867188" xlink:href="#DejaVuSans-69"/>
      <use x="627.050781" xlink:href="#DejaVuSans-83"/>
     </g>
    </g>
    <g id="line2d_25">
     <path d="M 265.834375 121.049062 
L 285.834375 121.049062 
" style="fill:none;stroke:#808080;stroke-linecap:square;stroke-width:1.5;"/>
    </g>
    <g id="line2d_26"/>
    <g id="text_15">
     <!-- Unbiased SMILES -->
     <defs>
      <path d="M 8.6875 72.90625 
L 18.609375 72.90625 
L 18.609375 28.609375 
Q 18.609375 16.890625 22.84375 11.734375 
Q 27.09375 6.59375 36.625 6.59375 
Q 46.09375 6.59375 50.34375 11.734375 
Q 54.59375 16.890625 54.59375 28.609375 
L 54.59375 72.90625 
L 64.5 72.90625 
L 64.5 27.390625 
Q 64.5 13.140625 57.4375 5.859375 
Q 50.390625 -1.421875 36.625 -1.421875 
Q 22.796875 -1.421875 15.734375 5.859375 
Q 8.6875 13.140625 8.6875 27.390625 
z
" id="DejaVuSans-85"/>
      <path d="M 54.890625 33.015625 
L 54.890625 0 
L 45.90625 0 
L 45.90625 32.71875 
Q 45.90625 40.484375 42.875 44.328125 
Q 39.84375 48.1875 33.796875 48.1875 
Q 26.515625 48.1875 22.3125 43.546875 
Q 18.109375 38.921875 18.109375 30.90625 
L 18.109375 0 
L 9.078125 0 
L 9.078125 54.6875 
L 18.109375 54.6875 
L 18.109375 46.1875 
Q 21.34375 51.125 25.703125 53.5625 
Q 30.078125 56 35.796875 56 
Q 45.21875 56 50.046875 50.171875 
Q 54.890625 44.34375 54.890625 33.015625 
z
" id="DejaVuSans-110"/>
      <path d="M 48.6875 27.296875 
Q 48.6875 37.203125 44.609375 42.84375 
Q 40.53125 48.484375 33.40625 48.484375 
Q 26.265625 48.484375 22.1875 42.84375 
Q 18.109375 37.203125 18.109375 27.296875 
Q 18.109375 17.390625 22.1875 11.75 
Q 26.265625 6.109375 33.40625 6.109375 
Q 40.53125 6.109375 44.609375 11.75 
Q 48.6875 17.390625 48.6875 27.296875 
z
M 18.109375 46.390625 
Q 20.953125 51.265625 25.265625 53.625 
Q 29.59375 56 35.59375 56 
Q 45.5625 56 51.78125 48.09375 
Q 58.015625 40.1875 58.015625 27.296875 
Q 58.015625 14.40625 51.78125 6.484375 
Q 45.5625 -1.421875 35.59375 -1.421875 
Q 29.59375 -1.421875 25.265625 0.953125 
Q 20.953125 3.328125 18.109375 8.203125 
L 18.109375 0 
L 9.078125 0 
L 9.078125 75.984375 
L 18.109375 75.984375 
z
" id="DejaVuSans-98"/>
      <path d="M 9.421875 54.6875 
L 18.40625 54.6875 
L 18.40625 0 
L 9.421875 0 
z
M 9.421875 75.984375 
L 18.40625 75.984375 
L 18.40625 64.59375 
L 9.421875 64.59375 
z
" id="DejaVuSans-105"/>
      <path d="M 44.28125 53.078125 
L 44.28125 44.578125 
Q 40.484375 46.53125 36.375 47.5 
Q 32.28125 48.484375 27.875 48.484375 
Q 21.1875 48.484375 17.84375 46.4375 
Q 14.5 44.390625 14.5 40.28125 
Q 14.5 37.15625 16.890625 35.375 
Q 19.28125 33.59375 26.515625 31.984375 
L 29.59375 31.296875 
Q 39.15625 29.25 43.1875 25.515625 
Q 47.21875 21.78125 47.21875 15.09375 
Q 47.21875 7.46875 41.1875 3.015625 
Q 35.15625 -1.421875 24.609375 -1.421875 
Q 20.21875 -1.421875 15.453125 -0.5625 
Q 10.6875 0.296875 5.421875 2 
L 5.421875 11.28125 
Q 10.40625 8.6875 15.234375 7.390625 
Q 20.0625 6.109375 24.8125 6.109375 
Q 31.15625 6.109375 34.5625 8.28125 
Q 37.984375 10.453125 37.984375 14.40625 
Q 37.984375 18.0625 35.515625 20.015625 
Q 33.0625 21.96875 24.703125 23.78125 
L 21.578125 24.515625 
Q 13.234375 26.265625 9.515625 29.90625 
Q 5.8125 33.546875 5.8125 39.890625 
Q 5.8125 47.609375 11.28125 51.796875 
Q 16.75 56 26.8125 56 
Q 31.78125 56 36.171875 55.265625 
Q 40.578125 54.546875 44.28125 53.078125 
z
" id="DejaVuSans-115"/>
      <path d="M 45.40625 46.390625 
L 45.40625 75.984375 
L 54.390625 75.984375 
L 54.390625 0 
L 45.40625 0 
L 45.40625 8.203125 
Q 42.578125 3.328125 38.25 0.953125 
Q 33.9375 -1.421875 27.875 -1.421875 
Q 17.96875 -1.421875 11.734375 6.484375 
Q 5.515625 14.40625 5.515625 27.296875 
Q 5.515625 40.1875 11.734375 48.09375 
Q 17.96875 56 27.875 56 
Q 33.9375 56 38.25 53.625 
Q 42.578125 51.265625 45.40625 46.390625 
z
M 14.796875 27.296875 
Q 14.796875 17.390625 18.875 11.75 
Q 22.953125 6.109375 30.078125 6.109375 
Q 37.203125 6.109375 41.296875 11.75 
Q 45.40625 17.390625 45.40625 27.296875 
Q 45.40625 37.203125 41.296875 42.84375 
Q 37.203125 48.484375 30.078125 48.484375 
Q 22.953125 48.484375 18.875 42.84375 
Q 14.796875 37.203125 14.796875 27.296875 
z
" id="DejaVuSans-100"/>
     </defs>
     <g transform="translate(293.834375 124.549062)scale(0.1 -0.1)">
      <use xlink:href="#DejaVuSans-85"/>
      <use x="73.193359" xlink:href="#DejaVuSans-110"/>
      <use x="136.572266" xlink:href="#DejaVuSans-98"/>
      <use x="200.048828" xlink:href="#DejaVuSans-105"/>
      <use x="227.832031" xlink:href="#DejaVuSans-97"/>
      <use x="289.111328" xlink:href="#DejaVuSans-115"/>
      <use x="341.210938" xlink:href="#DejaVuSans-101"/>
      <use x="402.734375" xlink:href="#DejaVuSans-100"/>
      <use x="466.210938" xlink:href="#DejaVuSans-32"/>
      <use x="497.998047" xlink:href="#DejaVuSans-83"/>
      <use x="561.474609" xlink:href="#DejaVuSans-77"/>
      <use x="647.753906" xlink:href="#DejaVuSans-73"/>
      <use x="677.246094" xlink:href="#DejaVuSans-76"/>
      <use x="732.958984" xlink:href="#DejaVuSans-69"/>
      <use x="796.142578" xlink:href="#DejaVuSans-83"/>
     </g>
    </g>
   </g>
  </g>
 </g>
 <defs>
  <clipPath id="p21f008fdbb">
   <rect height="217.44" width="334.8" x="54" y="34.56"/>
  </clipPath>
 </defs>
</svg>
